<?xml version="1.0" encoding="utf-8"?>
<!-- Generator: Adobe Illustrator 22.0.1, SVG Export Plug-In . SVG Version: 6.00 Build 0)  -->
<svg version="1.1" id="icons" xmlns="http://www.w3.org/2000/svg" xmlns:xlink="http://www.w3.org/1999/xlink" x="0px" y="0px"
	 viewBox="0 0 512 512" style="enable-background:new 0 0 512 512;" xml:space="preserve">
<style type="text/css">
	.st0{fill:#4CB050;}
</style>
<path class="st0" d="M480,0H144c-8.8,0-16,7.2-16,16v112h16V16h64v32h-40c-4.4,0-8,3.6-8,8v72h16V64h32v16c0,8.8,7.2,16,16,16h176
	c8.8,0,16-7.2,16-16V64h32v192h16V56c0-4.4-3.6-8-8-8h-40V16h64v480H144v-48h-16v56c0,4.4,3.6,8,8,8h344c8.8,0,16-7.2,16-16V16
	C496,7.2,488.8,0,480,0z M400,80H224V16h176V80z"/>
<path class="st0" d="M464,272h-16v112h-80c-4.4,0-8,3.6-8,8v72H176v-16h-16v24c0,4.4,3.6,8,8,8h200c0.4,0,0.7,0,1.1-0.1
	c0.1,0,0.2,0,0.2,0c0,0,0.1,0,0.1,0c0.1,0,0.1,0,0.2,0c0.1,0,0.1,0,0.2,0c0,0,0,0,0.1,0c0.2-0.1,0.4-0.1,0.6-0.2c0,0,0,0,0,0
	c0.2-0.1,0.4-0.2,0.7-0.3c0,0,0,0,0,0c0.2-0.1,0.4-0.2,0.6-0.3c0,0,0,0,0,0c0.1-0.1,0.2-0.1,0.3-0.2c0,0,0.1,0,0.1-0.1
	c0.1,0,0.1-0.1,0.2-0.1c0,0,0.1,0,0.1-0.1c0.1,0,0.1-0.1,0.2-0.1s0.1-0.1,0.2-0.1c0,0,0.1-0.1,0.1-0.1c0.1-0.1,0.2-0.2,0.3-0.2
	l88-80c0.1-0.1,0.3-0.2,0.4-0.4c0,0,0.1-0.1,0.1-0.1c0.1-0.1,0.2-0.2,0.3-0.4c0,0,0,0,0.1-0.1c0.1-0.1,0.2-0.3,0.3-0.4
	c0,0,0.1-0.1,0.1-0.1c0.1-0.1,0.2-0.2,0.2-0.4c0,0,0-0.1,0.1-0.1c0.1-0.2,0.2-0.3,0.2-0.5c0,0,0-0.1,0.1-0.1
	c0.1-0.1,0.1-0.2,0.2-0.4c0,0,0-0.1,0.1-0.1c0.1-0.2,0.1-0.3,0.2-0.5c0,0,0,0,0-0.1c0-0.2,0.1-0.3,0.1-0.5c0,0,0-0.1,0-0.1
	c0.1-0.4,0.1-0.7,0.2-1.1c0,0,0-0.1,0-0.1c0-0.1,0-0.3,0-0.4c0,0,0-0.1,0-0.1c0,0,0,0,0,0L464,272L464,272z M376,400h59.3
	l-38.8,35.3L376,453.9L376,400z"/>
<path class="st0" d="M240,40h16v16h-16V40z"/>
<path class="st0" d="M368,40h16v16h-16V40z"/>
<path class="st0" d="M408,128H224c-4.4,0-8,3.6-8,8v32h16v-24h168v112H280v16h128c4.4,0,8-3.6,8-8V136C416,131.6,412.4,128,408,128z
	"/>
<path class="st0" d="M272,304h88v16h-88V304z"/>
<path class="st0" d="M376,304h48v16h-48V304z"/>
<path class="st0" d="M248,352h88v16h-88V352z"/>
<path class="st0" d="M352,352h72v16h-72V352z"/>
<path class="st0" d="M208,400h136v16H208V400z"/>
<path class="st0" d="M272,40h80v16h-80V40z"/>
<path class="st0" d="M144,432c1.7,0,3.4-0.5,4.8-1.6l35.3-26.5c40.8-30.6,68.1-75.1,77-125.2l10.8-61.3c0.6-3.4-1.1-6.8-4.1-8.4
	l-120-64c-2.4-1.3-5.2-1.3-7.5,0l-120,64c-3.1,1.6-4.7,5-4.1,8.4l10.7,60.9c8.8,49.7,35.8,94,76,124.5l36.3,27.6
	C140.6,431.5,142.3,432,144,432L144,432z M42.6,275.5l-9.7-55.1L144,161.1l111.1,59.3l-9.8,55.6c-8.1,46.2-33.3,87.1-70.8,115.2
	L144,414l-31.5-24C75.5,361.9,50.7,321.2,42.6,275.5z"/>
<path class="st0" d="M174.7,374c30.3-22.8,50.7-55.8,57.3-93.2l7.9-44.9c0.6-3.4-1.1-6.8-4.1-8.4l-40-21.3l-7.5,14.1l34.9,18.6
	l-6.9,39.2c-5.9,33.3-24,62.9-51.1,83.2L144,377l-21.8-16.6c-26.7-20.3-44.6-49.6-50.4-82.7l-6.9-38.9l34.9-18.6L92.2,206l-40,21.3
	c-3.1,1.6-4.7,5-4.1,8.4l7.9,44.6c6.5,37,26.6,69.9,56.5,92.6l26.7,20.2c1.4,1.1,3.1,1.6,4.8,1.6c1.7,0,3.4-0.5,4.8-1.6L174.7,374z"
	/>
<path class="st0" d="M144,196.6l28.2,15.1l7.5-14.1l-32-17.1c-2.4-1.3-5.2-1.3-7.5,0l-32,17.1l7.5,14.1L144,196.6z"/>
<path class="st0" d="M135.7,320h0.3c2.3,0,4.5-1,6-2.7l56-64l-12-10.5l-49.5,56.6l-18.1-24.1l-12.8,9.6l24,32
	C131,318.7,133.3,319.9,135.7,320L135.7,320z"/>
<path class="st0" d="M136,224h16v16h-16V224z"/>
<path class="st0" d="M136,336h16v16h-16V336z"/>
</svg>
