<?xml version="1.0" encoding="utf-8"?>
<!-- Generator: Adobe Illustrator 22.0.1, SVG Export Plug-In . SVG Version: 6.00 Build 0)  -->
<svg version="1.1" id="Capa_1" xmlns="http://www.w3.org/2000/svg" xmlns:xlink="http://www.w3.org/1999/xlink" x="0px" y="0px"
	 viewBox="0 0 60 60" style="enable-background:new 0 0 60 60;" xml:space="preserve">
<style type="text/css">
	.st0{fill:#4CB050;}
</style>
<g>
	<path class="st0" d="M5.5,12.4C6,12.2,6.2,11.6,6,11.1c-0.2-0.5-0.8-0.7-1.3-0.5c-0.7,0.3-1.3,0.7-1.9,1.2c-0.4,0.4-0.5,1-0.1,1.4
		c0.2,0.2,0.5,0.3,0.8,0.3c0.2,0,0.5-0.1,0.7-0.2C4.5,13,5,12.7,5.5,12.4z"/>
	<path class="st0" d="M9,11.9h2c0.6,0,1-0.4,1-1s-0.4-1-1-1H9c-0.6,0-1,0.4-1,1S8.4,11.9,9,11.9z"/>
	<path class="st0" d="M15,11.9h2c0.6,0,1-0.4,1-1s-0.4-1-1-1h-2c-0.6,0-1,0.4-1,1S14.4,11.9,15,11.9z"/>
	<path class="st0" d="M11,23.9H9c-0.6,0-1,0.4-1,1s0.4,1,1,1h2c0.6,0,1-0.4,1-1S11.6,23.9,11,23.9z"/>
	<path class="st0" d="M23,23.9h-2c-0.6,0-1,0.4-1,1s0.4,1,1,1h2c0.6,0,1-0.4,1-1S23.6,23.9,23,23.9z"/>
	<path class="st0" d="M17,23.9h-2c-0.6,0-1,0.4-1,1s0.4,1,1,1h2c0.6,0,1-0.4,1-1S17.6,23.9,17,23.9z"/>
	<path class="st0" d="M5.5,23.3c-0.5-0.2-1-0.5-1.4-0.9c-0.4-0.4-1-0.3-1.4,0.1c-0.4,0.4-0.3,1,0.1,1.4c0.6,0.5,1.2,0.9,1.9,1.2
		c0.1,0.1,0.3,0.1,0.4,0.1c0.4,0,0.7-0.2,0.9-0.6C6.2,24.2,6,23.6,5.5,23.3z"/>
	<path class="st0" d="M29,23.9h-2c-0.6,0-1,0.4-1,1s0.4,1,1,1h2c0.6,0,1-0.4,1-1S29.6,23.9,29,23.9z"/>
	<path class="st0" d="M47,23.9h-2c-0.6,0-1,0.4-1,1s0.4,1,1,1h2c0.6,0,1-0.4,1-1S47.6,23.9,47,23.9z"/>
	<path class="st0" d="M53,23.9h-2c-0.6,0-1,0.4-1,1s0.4,1,1,1h2c0.6,0,1-0.4,1-1S53.6,23.9,53,23.9z"/>
	<path class="st0" d="M35,23.9h-2c-0.6,0-1,0.4-1,1s0.4,1,1,1h2c0.6,0,1-0.4,1-1S35.6,23.9,35,23.9z"/>
	<path class="st0" d="M41,23.9h-2c-0.6,0-1,0.4-1,1s0.4,1,1,1h2c0.6,0,1-0.4,1-1S41.6,23.9,41,23.9z"/>
	<path class="st0" d="M5.5,53.3c-0.5-0.2-1-0.5-1.4-0.9c-0.4-0.4-1-0.3-1.4,0.1c-0.4,0.4-0.3,1,0.1,1.4c0.6,0.5,1.2,0.9,1.9,1.2
		c0.1,0.1,0.3,0.1,0.4,0.1c0.4,0,0.7-0.2,0.9-0.6C6.2,54.2,6,53.6,5.5,53.3z"/>
	<path class="st0" d="M17,53.9h-2c-0.6,0-1,0.4-1,1s0.4,1,1,1h2c0.6,0,1-0.4,1-1S17.6,53.9,17,53.9z"/>
	<path class="st0" d="M11,53.9H9c-0.6,0-1,0.4-1,1s0.4,1,1,1h2c0.6,0,1-0.4,1-1S11.6,53.9,11,53.9z"/>
	<path class="st0" d="M35,53.9h-2c-0.6,0-1,0.4-1,1s0.4,1,1,1h2c0.6,0,1-0.4,1-1S35.6,53.9,35,53.9z"/>
	<path class="st0" d="M38,54.9c0,0.6,0.4,1,1,1h2c0.6,0,1-0.4,1-1s-0.4-1-1-1h-2C38.4,53.9,38,54.3,38,54.9z"/>
	<path class="st0" d="M45,55.9h2c0.6,0,1-0.4,1-1s-0.4-1-1-1h-2c-0.6,0-1,0.4-1,1S44.4,55.9,45,55.9z"/>
	<path class="st0" d="M29,53.9h-2c-0.6,0-1,0.4-1,1s0.4,1,1,1h2c0.6,0,1-0.4,1-1S29.6,53.9,29,53.9z"/>
	<path class="st0" d="M51,55.9h2c0.6,0,1-0.4,1-1s-0.4-1-1-1h-2c-0.6,0-1,0.4-1,1S50.4,55.9,51,55.9z"/>
	<path class="st0" d="M23,53.9h-2c-0.6,0-1,0.4-1,1s0.4,1,1,1h2c0.6,0,1-0.4,1-1S23.6,53.9,23,53.9z"/>
	<path class="st0" d="M44,38.9c0,2.2,1.8,4,4,4s4-1.8,4-4s-1.8-4-4-4S44,36.7,44,38.9z M48,36.9c1.1,0,2,0.9,2,2s-0.9,2-2,2
		s-2-0.9-2-2S46.9,36.9,48,36.9z"/>
	<path class="st0" d="M42.9,5.9l-5.4-5.4c-0.4-0.4-1.2-0.4-1.6,0l-2,2l-2-2c-0.4-0.4-1.2-0.4-1.6,0l-5.4,5.4H8c-4.4,0-8,3.6-8,8
		v38.8c0,3.9,3.2,7.2,7.2,7.2H60v-14v-14v-10v-2v-14C60,5.9,42.9,5.9,42.9,5.9z M36.7,2.5l3.4,3.4l14,14h-5.4L37.5,8.6
		c-0.4-0.4-1.1-0.4-1.5,0L24.7,19.9h-5.4l16-16l0,0L36.7,2.5z M45.9,19.9H27.5l9.2-9.2L45.9,19.9z M31,2.5l1.4,1.4l-16,16h-2.9
		l14-14L31,2.5z M8,7.9h14.8l-2.1,2.1c-0.3,0.1-0.5,0.3-0.6,0.6l-9.3,9.3H8c-3.3,0-6-2.7-6-6S4.7,7.9,8,7.9z M58,43.9H47
		c-2.8,0-5-2.2-5-5s2.2-5,5-5h11V43.9z M58,23.9h-1c-0.6,0-1,0.4-1,1s0.4,1,1,1h1v6H47c-3.9,0-7,3.1-7,7s3.1,7,7,7h11v8h-1
		c-0.6,0-1,0.4-1,1s0.4,1,1,1h1v2H7.2c-2.8,0-5.2-2.3-5.2-5.2v-2.2c0.2-0.3,0.3-0.6,0.2-1C2.1,49,2,48.5,2,47.9V20.5
		c0.2-0.3,0.3-0.6,0.2-1c0-0.1,0-0.1,0-0.2c0.1,0.1,0.2,0.2,0.3,0.3c0.1,0.1,0.2,0.2,0.3,0.2C2.8,20,3,20.1,3.1,20.2
		c0.1,0.1,0.2,0.1,0.3,0.2c0.1,0.1,0.2,0.2,0.4,0.2c0.1,0.1,0.2,0.1,0.3,0.2C4.2,20.9,4.3,21,4.4,21c0.1,0.1,0.2,0.1,0.3,0.2
		c0.1,0.1,0.3,0.1,0.4,0.2c0.1,0,0.2,0.1,0.3,0.1c0.2,0.1,0.3,0.1,0.5,0.1c0.1,0,0.2,0.1,0.3,0.1c0.2,0,0.4,0.1,0.6,0.1
		c0.1,0,0.2,0,0.3,0c0.3,0,0.6,0,0.9,0h3.8h2.8h2.9h2.8h5h22.8h5h2.8H58V23.9z M56.9,19.9l-8-8H49c0.6,0,1-0.4,1-1s-0.4-1-1-1h-2
		c0,0,0,0,0,0l-2-2H58v12H56.9z"/>
	<path class="st0" d="M55,9.9h-2c-0.6,0-1,0.4-1,1s0.4,1,1,1h2c0.6,0,1-0.4,1-1S55.6,9.9,55,9.9z"/>
</g>
</svg>
