<?xml version="1.0" encoding="utf-8"?>
<!-- Generator: Adobe Illustrator 22.0.1, SVG Export Plug-In . SVG Version: 6.00 Build 0)  -->
<svg version="1.1" id="Слой_1" xmlns="http://www.w3.org/2000/svg" xmlns:xlink="http://www.w3.org/1999/xlink" x="0px" y="0px"
	 viewBox="0 0 512 512" style="enable-background:new 0 0 512 512;" xml:space="preserve">
<style type="text/css">
	.st0{fill:#4CB050;}
</style>
<g>
	<path class="st0" d="M480.1,11v79.5H335.3c-4.9-28.3-28.6-49-56.4-49c-28.6,0-51.5,21.4-56.4,49H179c-4.7-28.3-27.7-49-56.4-49
		c-28.6,0-51.5,21.4-56.4,49H31.9V11H11v490h20.9v-79.5h34.3c4.9,28.3,28.6,49,56.4,49c28.6,0,51.5-21.4,56.4-49h28
		c4.9,28.3,28.6,49,56.4,49c27.7,0,50.5-21.4,56.1-49h160.8V501H501V11H480.1z M278.9,64.4c20.9,0,36.5,16.3,36.5,38.1
		c0,20.7-16.7,38.1-36.5,38.1s-36.5-17.4-36.5-38.1S259.1,64.4,278.9,64.4z M122.6,64.4c20.9,0,36.5,16.3,36.5,38.1
		c0,20.7-16.7,38.1-36.5,38.1s-36.5-17.4-36.5-38.1S102.7,64.4,122.6,64.4z M66.2,112.3c4.9,28.3,28.6,49,56.4,49
		c28.7,0,51.7-20.7,56.4-49h43.6c4.9,28.3,28.6,49,56.4,49c28.7,0,51.7-20.7,56.4-49h144.8v132.8h-28.1c-4.9-28.3-28.6-49-56.4-49
		c-28.7,0-51.7,20.7-56.4,49h-66.5c-4.7-28.3-27.7-49-56.4-49s-51.7,20.7-56.4,49H31.9V112.3C31.9,112.3,66.2,112.3,66.2,112.3z
		 M432.2,256c0,20.7-16.7,38.1-36.5,38.1s-36.5-17.4-36.5-38.1s16.7-38.1,36.5-38.1C416.6,217.9,432.2,235.3,432.2,256z M252.9,256
		c0,20.7-16.7,38.1-36.5,38.1s-36.5-17.4-36.5-38.1s16.7-38.1,36.5-38.1S252.9,235.3,252.9,256z M122.6,448.7
		c-19.8,0-36.5-17.4-36.5-38.1s16.7-38.1,36.5-38.1c20.9,0,36.5,17.4,36.5,38.1C159,431.3,142.4,448.7,122.6,448.7z M263.3,448.7
		c-19.8,0-36.5-17.4-36.5-38.1s16.7-38.1,36.5-38.1s36.5,17.4,36.5,38.1S283.1,448.7,263.3,448.7z M319.7,399.7
		c-4.7-28.3-27.7-49-56.4-49c-28.6,0-51.5,21.4-56.4,49H179c-4.7-28.3-27.7-49-56.4-49c-28.6,0-51.5,21.4-56.4,49H31.9V266.9H160
		c4.9,28.3,28.6,49,56.4,49s51.5-20.7,56.4-49h66.5c4.9,28.3,28.6,49,56.4,49s51.5-20.7,56.4-49h28.1v132.8H319.7z"/>
</g>
</svg>
