<?xml version="1.0" encoding="utf-8"?>
<!-- Generator: Adobe Illustrator 22.0.1, SVG Export Plug-In . SVG Version: 6.00 Build 0)  -->
<svg version="1.1" id="Слой_1" xmlns="http://www.w3.org/2000/svg" xmlns:xlink="http://www.w3.org/1999/xlink" x="0px" y="0px"
	 viewBox="0 0 512 512" style="enable-background:new 0 0 512 512;" xml:space="preserve">
<style type="text/css">
	.st0{fill:#4CB050;}
</style>
<path class="st0" d="M400,239.2c0-0.9,0-135.2,0-135.2L200,4L0,104v132.5c-0.1,83,41.4,160.4,110.4,206.4l89.6,59.7l69-46
	c37.3,47.8,101.7,65.1,157.9,42.4c56.2-22.7,90.6-79.8,84.4-140.1C505,298.7,459.6,249.8,400,239.2L400,239.2z M200,483.3
	l-80.7-53.8C54.7,386.6,15.9,314.1,16,236.5V113.9l184-92l184,92v123.5c-2.7-0.2-5.3-0.4-8-0.4s-5.4,0.2-8,0.4
	c0-0.3,0-113.6,0-113.6l-168-84l-168,84v112.7c-0.1,72.3,36.1,139.7,96.2,179.8l71.8,47.8l52.3-34.9c2.2,4.9,4.8,9.6,7.6,14.2
	L200,483.3z M246.4,414L200,444.9l-62.9-41.9c-3.1-2.1-6.1-4.3-9.1-6.5v-71.5h-16V383c-8.8-8.1-16.8-17.1-24-26.6v-46.5
	c0-11,7.5-20.6,18.2-23.3l54.3-13.6c1.7,17.3,14.5,31.6,31.6,35.1v32.8h16v-32.8c17.1-3.6,29.8-17.8,31.6-35.1l35.6,8.9
	C242.7,317.7,231.7,368,246.4,414L246.4,414z M160,172.9h22.1c12.3,0,24.5-2.8,35.7-8h2.2l20,26.7v33.3l-26.7,20h-26.7l-26.7-20
	V172.9z M144.7,156.9c1.6-10,8-18.7,17.1-23.1c17.7-7.9,37.6-9.1,56.2-3.5l1.8,2.7H232c4.4,0,8,3.6,8,8v24l-12-16h-13.9l-1.7,0.8
	c-9.4,4.7-19.8,7.1-30.3,7.2H144.7z M224,256.9v12c0,13.3-10.7,24-24,24s-24-10.7-24-24v-12l5.3,4h37.3L224,256.9z M240,256.6v-11.7
	l16-12v-92c0-13.3-10.7-24-24-24h-5.3c-11.6-7-40.4-8.5-60.8-2.1c-22.9,5.6-38.7,26.5-37.9,50.1v8h16v60l16,12v11.6l-57.7,14.5
	C84.5,275.6,72,291.6,72,309.9v21.6c-15.8-29.2-24-61.9-24-95V133.6l152-76l152,76v102.8c0,0.9-0.1,1.8-0.1,2.7
	c-23.3,4.2-45.2,14.4-63.3,29.6L240,256.6z M376,492.9c-66.3,0-120-53.7-120-120c0-66.3,53.7-120,120-120s120,53.7,120,120
	C495.9,439.2,442.2,492.9,376,492.9z"/>
<path class="st0" d="M416,140.9h96v16h-96V140.9z"/>
<path class="st0" d="M416,172.9h64v16h-64V172.9z"/>
<path class="st0" d="M416,204.9h32v16h-32V204.9z"/>
<path class="st0" d="M346.5,367.3L318.3,339L273,384.3l73.5,73.5L471,333.3l-45.3-45.2L346.5,367.3z M346.5,435.2l-50.9-50.9
	l22.6-22.6l28.3,28.3l79.2-79.2l22.6,22.6L346.5,435.2z"/>
</svg>
