<?xml version="1.0" encoding="utf-8"?>
<!-- Generator: Adobe Illustrator 22.0.1, SVG Export Plug-In . SVG Version: 6.00 Build 0)  -->
<svg version="1.1" id="Слой_1" xmlns="http://www.w3.org/2000/svg" xmlns:xlink="http://www.w3.org/1999/xlink" x="0px" y="0px"
	 viewBox="0 0 512 512" style="enable-background:new 0 0 512 512;" xml:space="preserve">
<style type="text/css">
	.st0{fill:#D1D1D1;}
</style>
<path class="st0" d="M512,256c0,141.5-114.5,256-256,256S0,397.5,0,256S114.5,0,256,0S512,114.5,512,256z M472,256
	c0-119.4-96.6-216-216-216S40,136.6,40,256s96.6,216,216,216S472,375.4,472,256z"/>
<path class="st0" d="M345.4,345.4L345.4,345.4c-7,7-18.4,7-25.5,0L166.6,192c-7-7-7-18.4,0-25.5l0,0c7-7,18.4-7,25.5,0L345.4,320
	C352.5,327,352.5,338.4,345.4,345.4z"/>
<path class="st0" d="M166.6,345.4L166.6,345.4c-7-7-7-18.4,0-25.5L320,166.6c7-7,18.4-7,25.5,0l0,0c7,7,7,18.4,0,25.5L192,345.4
	C185,352.5,173.6,352.5,166.6,345.4z"/>
</svg>
