<?xml version="1.0" encoding="utf-8"?>
<!-- Generator: Adobe Illustrator 22.0.1, SVG Export Plug-In . SVG Version: 6.00 Build 0)  -->
<svg version="1.1" id="Слой_1" xmlns="http://www.w3.org/2000/svg" xmlns:xlink="http://www.w3.org/1999/xlink" x="0px" y="0px"
	 viewBox="0 0 512 512" style="enable-background:new 0 0 512 512;" xml:space="preserve">
<style type="text/css">
	.st0{fill:#4CB050;}
</style>
<path class="st0" d="M490.9,213.9l-6.6-4.9c-8.2-6.1-11.1-17-7.1-26.4l3.2-7.6c6.6-15.4,5.6-32.5-2.8-47
	c-8.4-14.5-22.7-23.9-39.3-25.9l-8.2-1c-10.2-1.2-18.1-9.2-19.3-19.3l-1-8.2c-2-16.6-11.4-30.9-25.9-39.3c-14.5-8.4-31.6-9.4-47-2.8
	l-7.6,3.2c-9.4,4-20.3,1.1-26.4-7.1l-4.9-6.6C288.1,7.7,272.7,0,256,0s-32.1,7.7-42.1,21.1l-4.9,6.6c-6.1,8.2-17,11.1-26.4,7.1
	l-7.6-3.2c-15.4-6.6-32.5-5.6-47,2.8c-14.5,8.4-23.9,22.7-25.9,39.3l-1,8.2c-1.2,10.2-9.2,18.1-19.3,19.3l-8.2,1
	c-16.6,2-30.9,11.4-39.3,25.9c-8.4,14.5-9.4,31.6-2.8,47l3.2,7.6c4,9.4,1.1,20.3-7.1,26.4l-6.6,4.9C7.7,223.9,0,239.3,0,256
	c0,16.7,7.7,32.1,21.1,42.1l6.6,4.9c8.2,6.1,11.1,17,7.1,26.4l-3.2,7.6c-6.6,15.4-5.6,32.5,2.8,47c8.4,14.5,22.7,23.9,39.3,25.9
	l8.2,1c10.2,1.2,18.1,9.2,19.3,19.3l1,8.2c2,16.6,11.4,30.9,25.9,39.3c14.5,8.4,31.6,9.4,47,2.8l7.6-3.2c9.4-4,20.3-1.1,26.4,7.1
	l4.9,6.6c10,13.4,25.4,21.1,42.1,21.1c16.7,0,32.1-7.7,42.1-21.1l4.9-6.6c6.1-8.2,17-11.1,26.4-7.1l7.6,3.2
	c15.4,6.6,32.5,5.6,47-2.8c14.5-8.4,23.9-22.7,25.9-39.3l1-8.2c1.2-10.2,9.2-18.1,19.3-19.3l8.2-1c16.6-2,30.9-11.4,39.3-25.9
	c8.4-14.5,9.4-31.6,2.8-47l-3.2-7.6c-4-9.4-1.1-20.3,7.1-26.4l6.6-4.9c13.4-10,21.1-25.4,21.1-42.1
	C512,239.3,504.3,223.9,490.9,213.9z M478.9,282.1l-6.6,4.9c-15.6,11.7-21.2,32.4-13.5,50.3l3.2,7.6c4.1,9.5,3.4,20.1-1.7,29.1
	c-5.2,9-14.1,14.8-24.4,16.1l-8.2,1c-19.4,2.3-34.5,17.5-36.8,36.8l-1,8.2c-1.2,10.3-7.1,19.2-16.1,24.4c-9,5.2-19.6,5.8-29.1,1.7
	l-7.6-3.2c-17.9-7.7-38.6-2.1-50.3,13.5l-4.9,6.6c-6.2,8.3-15.7,13.1-26.1,13.1c-10.4,0-19.9-4.8-26.1-13.1l-4.9-6.6
	c-8.2-10.9-20.7-16.9-33.7-16.9c-5.6,0-11.2,1.1-16.6,3.4l-7.6,3.2c-9.5,4.1-20.1,3.4-29.1-1.7c-9-5.2-14.8-14.1-16.1-24.4l-1-8.2
	c-2.3-19.4-17.5-34.5-36.8-36.8l-8.2-1c-10.3-1.2-19.2-7.1-24.4-16.1c-5.2-9-5.8-19.6-1.7-29.1l3.2-7.6c7.7-17.9,2.1-38.6-13.5-50.3
	l-6.6-4.9C24.8,275.9,20,266.4,20,256c0-10.4,4.8-19.9,13.1-26.1l6.6-4.9c15.6-11.7,21.2-32.4,13.5-50.3l-3.2-7.6
	c-4.1-9.5-3.4-20.1,1.7-29.1c5.2-9,14.1-14.8,24.4-16.1l8.2-1c19.4-2.3,34.5-17.5,36.8-36.8l1-8.2c1.2-10.3,7.1-19.2,16.1-24.4
	c9-5.2,19.6-5.8,29.1-1.7l7.6,3.2c17.9,7.7,38.6,2.1,50.3-13.5l4.9-6.6C236.1,24.8,245.6,20,256,20c10.4,0,19.9,4.8,26.1,13.1
	l4.9,6.6c11.7,15.6,32.4,21.2,50.3,13.5l7.6-3.2c9.5-4.1,20.1-3.4,29.1,1.7c9,5.2,14.8,14.1,16.1,24.4l1,8.2
	c2.3,19.4,17.5,34.5,36.8,36.8l8.2,1c10.3,1.2,19.2,7.1,24.4,16.1c5.2,9,5.8,19.6,1.7,29.1l-3.2,7.6c-7.7,17.9-2.1,38.6,13.5,50.3
	l6.6,4.9c8.3,6.2,13.1,15.7,13.1,26.1C492,266.4,487.2,275.9,478.9,282.1z"/>
<path class="st0" d="M256,58.1c-30.2,0-59.1,6.6-86.1,19.7c-5,2.4-7.1,8.4-4.6,13.4c2.4,5,8.4,7.1,13.4,4.6
	c24.2-11.7,50.3-17.7,77.4-17.7c98.1,0,177.9,79.8,177.9,177.9c0,98.1-79.8,177.9-177.9,177.9c-98.1,0-177.9-79.8-177.9-177.9
	c0-40.2,13.1-78.1,37.8-109.6c3.4-4.3,2.6-10.6-1.7-14c-4.3-3.4-10.6-2.6-14,1.7c-27.5,35.1-42,77.3-42,122
	c0,109.1,88.8,197.9,197.9,197.9S453.9,365.1,453.9,256C453.9,146.9,365.1,58.1,256,58.1z"/>
<path class="st0" d="M109.8,205.1l-7.6,9.7c-3.4,4.3-2.6,10.6,1.7,14c4.3,3.4,10.6,2.7,14-1.7l4.2-5.3v66.1h-6.7
	c-5.5,0-10,4.5-10,10c0,5.5,4.5,10,10,10h33c5.5,0,10-4.5,10-10c0-5.5-4.5-10-10-10h-6.4v-76.7c0-5.5-4.5-10-10-10h-14.4
	C114.6,201.3,111.7,202.7,109.8,205.1z"/>
<path class="st0" d="M190.1,307.9h5.2c16.5,0,29.9-13.4,29.9-29.9v-48.5c0-16.5-13.4-30-29.9-30h-5.2c-16.5,0-29.9,13.4-29.9,30V278
	C160.2,294.5,173.6,307.9,190.1,307.9z M180.2,229.5c0-5.5,4.5-10,9.9-10h5.2c5.5,0,9.9,4.5,9.9,10V278c0,5.5-4.5,9.9-9.9,9.9h-5.2
	c-5.5,0-9.9-4.5-9.9-9.9V229.5z"/>
<path class="st0" d="M270.7,307.9c16.5,0,29.9-13.4,29.9-29.9v-48.5c0-16.5-13.4-30-29.9-30h-5.2c-16.5,0-29.9,13.4-29.9,30V278
	c0,16.5,13.4,29.9,29.9,29.9H270.7z M255.6,278v-48.5c0-5.5,4.5-10,9.9-10h5.2c5.5,0,9.9,4.5,9.9,10V278c0,5.5-4.5,9.9-9.9,9.9h-5.2
	C260.1,287.9,255.6,283.5,255.6,278z"/>
<path class="st0" d="M402.8,198.4c-4.5-3.2-10.7-2.3-14,2.2l-63.5,87.4c-3.2,4.5-2.3,10.7,2.2,14c1.8,1.3,3.8,1.9,5.9,1.9
	c3.1,0,6.1-1.4,8.1-4.1l63.5-87.4C408.3,207.9,407.3,201.6,402.8,198.4z"/>
<path class="st0" d="M165.9,160.3c2.3,0,4.7-0.8,6.6-2.5c23.1-20.2,52.8-31.3,83.5-31.3c28.7,0,55.9,9.4,78.4,27.1
	c4.3,3.4,10.6,2.7,14-1.7c3.4-4.3,2.7-10.6-1.7-14c-26.1-20.5-57.5-31.4-90.8-31.4c-35.6,0-69.9,12.9-96.7,36.2
	c-4.2,3.6-4.6,9.9-1,14.1C160.4,159.1,163.1,160.3,165.9,160.3z"/>
<path class="st0" d="M164.1,369.2c26.1,20.5,57.5,31.4,90.8,31.4c23.1,0,45.2-5.2,65.7-15.5c4.9-2.5,6.9-8.5,4.5-13.4
	c-2.5-4.9-8.5-6.9-13.4-4.5c-17.7,8.9-36.8,13.3-56.7,13.3c-28.7,0-55.9-9.4-78.4-27.1c-4.3-3.4-10.6-2.7-14,1.7
	C159,359.5,159.7,365.8,164.1,369.2z"/>
<path class="st0" d="M354.2,352.1c-2.2-3.3-6.4-5-10.3-4.2c-4.1,0.8-7.4,4.3-8,8.5c-0.5,4.1,1.6,8.2,5.2,10.1
	c3.6,1.9,8.2,1.4,11.3-1.3C356.2,361.8,356.9,356.2,354.2,352.1z"/>
<path class="st0" d="M337.2,196.4c-13,0-23.5,10.6-23.5,23.5c0,13,10.6,23.5,23.5,23.5c13,0,23.5-10.6,23.5-23.5
	C360.8,207,350.2,196.4,337.2,196.4z M337.2,223.5c-1.9,0-3.5-1.6-3.5-3.5s1.6-3.5,3.5-3.5c1.9,0,3.5,1.6,3.5,3.5
	S339.2,223.5,337.2,223.5z"/>
<path class="st0" d="M369.2,280.9c0,13,10.6,23.5,23.5,23.5c13,0,23.5-10.6,23.5-23.5s-10.6-23.5-23.5-23.5
	C379.7,257.4,369.2,267.9,369.2,280.9z M396.3,280.9c0,1.9-1.6,3.5-3.5,3.5c-1.9,0-3.5-1.6-3.5-3.5c0-1.9,1.6-3.5,3.5-3.5
	C394.7,277.4,396.3,279,396.3,280.9z"/>
<path class="st0" d="M129.5,113.5c1.6,3.9,5.5,6.4,9.7,6.2c4.1-0.2,7.7-3,9-6.9c1.3-4-0.1-8.5-3.4-11c-3.4-2.6-8.1-2.7-11.6-0.4
	C129.2,103.9,127.7,109.1,129.5,113.5z"/>
</svg>
