<?xml version="1.0" encoding="utf-8"?>
<!-- Generator: Adobe Illustrator 22.0.1, SVG Export Plug-In . SVG Version: 6.00 Build 0)  -->
<svg version="1.1" id="Capa_1" xmlns="http://www.w3.org/2000/svg" xmlns:xlink="http://www.w3.org/1999/xlink" x="0px" y="0px"
	 viewBox="0 0 512 512" style="enable-background:new 0 0 512 512;" xml:space="preserve">
<style type="text/css">
	.st0{fill: #f57b2f;}
</style>
<g>
	<g>
		<path class="st0" d="M428,81.6h-25c-3.7,0-6.1,2.4-6.1,5h0v80.8c0,3.4,4,5.1,8.1,5.1c4,0,8.1-1.7,8.1-5.1v-28.8H427
			c16.4,0,29.2-7.8,29.2-28.2v-0.7C456.2,89.1,443.8,81.6,428,81.6z M440,111.5c0,9.7-5,14.3-13.1,14.3H413V95.7H427
			c8.1,0,13.1,4.6,13.1,14.3L440,111.5L440,111.5z"/>
	</g>
</g>
<g>
	<g>
		<path class="st0" d="M293.1,113.2c-23.6-23.6-55-36.6-88.4-36.6s-64.8,13-88.4,36.6c-2.8,2.8-2.8,7.5,0,10.3
			c2.8,2.8,7.5,2.8,10.3,0c20.8-20.8,48.6-32.3,78.1-32.3s57.2,11.5,78.1,32.3c1.4,1.4,3.3,2.1,5.2,2.1s3.7-0.7,5.2-2.1
			C295.9,120.6,295.9,116,293.1,113.2z"/>
	</g>
</g>
<g>
	<g>
		<path class="st0" d="M263,143.2c-32.1-32.1-84.4-32.1-116.6,0c-2.8,2.8-2.8,7.5,0,10.3c2.8,2.8,7.5,2.8,10.3,0
			c26.4-26.4,69.5-26.4,95.9,0c1.4,1.4,3.3,2.1,5.2,2.1c1.9,0,3.7-0.7,5.2-2.1C265.8,150.7,265.8,146.1,263,143.2z"/>
	</g>
</g>
<g>
	<g>
		<path class="st0" d="M233.4,172.9c-15.8-15.8-41.5-15.8-57.3,0c-2.8,2.8-2.8,7.5,0,10.3c2.8,2.8,7.5,2.8,10.3,0
			c10.1-10.1,26.6-10.1,36.7,0c1.4,1.4,3.3,2.1,5.2,2.1s3.7-0.7,5.2-2.1C236.2,180.3,236.2,175.7,233.4,172.9z"/>
	</g>
</g>
<g>
	<g>
		<path class="st0" d="M358.9,314.9c-3.2-1.7-6.3-3.6-9.3-5.7l-48.2-32.6c-14.6-9.9-31.7-15.1-49.4-15.1h-88.6
			c-23.5,0-45.6,9.1-62.3,25.7c-8.6,8.5-18.3,15.7-29,21.2c-6.3,3.3-10.2,9.7-10.2,16.8c0,10.5,8.5,19,19,19h30.2
			c4,0,7.3-3.3,7.3-7.3s-3.3-7.3-7.3-7.3H81c-2.4,0-4.4-2-4.4-4.4c0-1.6,0.9-3.1,2.4-3.9c12-6.2,22.9-14.2,32.6-23.8
			c13.9-13.8,32.4-21.5,52-21.5h19.8v53.6h-24.2c-4,0-7.3,3.3-7.3,7.3s3.3,7.3,7.3,7.3h200c6,0,10.9-4.9,10.9-10.9
			C369.9,325.7,365.7,318.7,358.9,314.9z M197.9,329.7v-53.6H252c14.7,0,29,4.4,41.2,12.6l48.2,32.6c3.4,2.3,6.8,4.4,10.4,6.3
			c0.9,0.5,1.7,1.2,2.3,2H197.9z"/>
	</g>
</g>
<g>
	<g>
		<path class="st0" d="M216,355.4h-22.5c-4,0-7.3,3.3-7.3,7.3s3.3,7.3,7.3,7.3H216c4,0,7.3-3.3,7.3-7.3
			C223.3,358.7,220,355.4,216,355.4z"/>
	</g>
</g>
<g>
	<g>
		<path class="st0" d="M505.7,349.3l-2.3-3.8c-8.7-14.4-23.1-24.6-39.6-27.8l-18.8-3.7v-95.4h48.7c10,0,18.2-8.2,18.2-18.2V58.2
			c0-10-8.2-18.2-18.2-18.2H351.6c-10,0-18.2,8.2-18.2,18.2v53.9c0,4,3.3,7.3,7.3,7.3s7.3-3.3,7.3-7.3V58.2c0-2,1.6-3.6,3.6-3.6
			h142.1c2,0,3.6,1.6,3.6,3.6v142.1c0,2-1.6,3.6-3.6,3.6H351.6c-2,0-3.6-1.6-3.6-3.6v-40.7c0-4-3.3-7.3-7.3-7.3s-7.3,3.3-7.3,7.3
			v40.7c0,10,8.2,18.2,18.2,18.2h55.3v87.9l-9.7-1.9c-13.4-2.7-26.4-10.7-35-16.6l-48.2-32.6c-18.4-12.4-39.8-19-61.9-19h-88.6
			c-29.5,0-57.2,11.5-78.1,32.2c-13.2,13.2-29.8,22.1-48.1,26l-10.5,2.2C11.3,299.9,0,313.8,0,329.7v70.6c0,8.4,5,16.1,12.7,19.5
			l29.1,12.9c1.8,9.2,6.2,18,13.3,25.1c9.4,9.4,21.8,14.1,34.2,14.1s24.8-4.7,34.2-14.1c6.1-6.1,10.2-13.4,12.3-21.1H378
			c2.2,7.7,6.3,15,12.3,21.1c9.1,9.1,21.3,14.2,34.2,14.2c12.9,0,25.1-5,34.2-14.2c6.1-6.1,10.2-13.4,12.3-21.1H485
			c14.9,0,27-12.1,27-27v-37.8C512,363.9,509.8,356.1,505.7,349.3z M421.5,218.4h8.9V311l-8.9-1.8V218.4z M113.1,447.5
			c-6.4,6.4-14.9,9.9-23.9,9.9s-17.5-3.5-23.9-9.9c-10.2-10.2-12.5-25.5-6.8-37.9c0-0.1,0.1-0.2,0.1-0.3c0.2-0.4,0.4-0.7,0.5-1.1
			c0.1-0.2,0.2-0.3,0.3-0.5c0.2-0.3,0.3-0.6,0.5-0.9c0.1-0.2,0.3-0.4,0.4-0.6c0.2-0.3,0.3-0.5,0.5-0.8c0.2-0.2,0.3-0.5,0.5-0.7
			c0.2-0.2,0.3-0.5,0.5-0.7c0.2-0.3,0.4-0.5,0.6-0.8c0.2-0.2,0.3-0.4,0.5-0.6c0.2-0.3,0.5-0.6,0.7-0.9c0.1-0.2,0.3-0.3,0.4-0.5
			c0.4-0.4,0.8-0.8,1.1-1.2c0,0,0.1-0.1,0.1-0.1c0.1-0.1,0.2-0.1,0.2-0.2c0.3-0.3,0.7-0.7,1-1c0.1-0.1,0.2-0.2,0.3-0.2
			c0.3-0.3,0.7-0.6,1-0.9c0,0,0.1-0.1,0.1-0.1c12.4-10,30.2-10,42.5,0c0,0,0,0,0,0c0.4,0.3,0.7,0.6,1.1,1c0.1,0.1,0.1,0.1,0.2,0.2
			c0.4,0.4,0.8,0.8,1.2,1.2c0.4,0.4,0.9,0.9,1.3,1.4c0.2,0.2,0.4,0.4,0.5,0.6c0.2,0.3,0.4,0.5,0.6,0.8c0.2,0.3,0.5,0.6,0.7,0.9
			c0.1,0.2,0.2,0.3,0.4,0.5c0.3,0.4,0.5,0.7,0.8,1.1c0,0.1,0.1,0.1,0.1,0.2C126.1,418.2,124.6,436,113.1,447.5z M448.5,447.5
			c-6.4,6.4-14.9,9.9-23.9,9.9s-17.5-3.5-23.9-9.9c-11.5-11.5-13-29.3-4.4-42.4c0-0.1,0.1-0.1,0.1-0.2c0.3-0.4,0.5-0.8,0.8-1.1
			c0.1-0.2,0.2-0.3,0.4-0.5c0.2-0.3,0.4-0.6,0.7-0.9c0.2-0.3,0.4-0.5,0.6-0.7c0.2-0.2,0.4-0.4,0.5-0.6c0.4-0.5,0.8-0.9,1.3-1.4
			c6.4-6.4,14.9-9.9,23.9-9.9s17.5,3.5,23.9,9.9c0.4,0.4,0.9,0.9,1.3,1.4c0.2,0.2,0.4,0.4,0.5,0.6c0.2,0.2,0.4,0.5,0.6,0.8
			c0.2,0.3,0.5,0.6,0.7,0.9c0.1,0.2,0.2,0.3,0.4,0.5c0.3,0.4,0.5,0.7,0.8,1.1c0,0.1,0.1,0.1,0.1,0.2
			C461.4,418.2,460,436,448.5,447.5z M497.4,409.7L497.4,409.7c0,6.9-5.6,12.5-12.5,12.5h-12c-0.3-10.6-4-20.7-10.7-28.9
			c0-0.1-0.1-0.1-0.1-0.2c-0.4-0.5-0.8-1-1.3-1.5c-0.1-0.1-0.2-0.3-0.3-0.4c-0.5-0.5-0.9-1-1.4-1.5c-0.1-0.1-0.2-0.2-0.2-0.3
			c-6.3-6.3-14-10.6-22.4-12.7c-3.8-1-7.8-1.4-11.8-1.4c-3.2,0-6.4,0.3-9.5,0.9c-9.3,1.8-17.8,6.4-24.7,13.2
			c-0.1,0.1-0.2,0.2-0.2,0.3c-0.5,0.5-1,1-1.4,1.5c-0.1,0.1-0.2,0.2-0.3,0.4c-0.4,0.5-0.9,1-1.3,1.5c0,0.1-0.1,0.1-0.1,0.2
			c-6.7,8.3-10.5,18.4-10.8,29H137.6c-0.3-10.6-4-20.7-10.8-29c0,0-0.1-0.1-0.1-0.1c-0.4-0.5-0.9-1.1-1.4-1.6
			c-0.1-0.1-0.2-0.2-0.3-0.3c-0.5-0.6-1.1-1.2-1.7-1.8c-2.4-2.4-4.9-4.4-7.6-6.2c-8-5.3-17.3-8-26.6-8c-12.4,0-24.8,4.7-34.2,14.1
			c-0.5,0.5-1.1,1.1-1.6,1.7c-0.2,0.2-0.3,0.3-0.4,0.5c-0.4,0.4-0.7,0.8-1.1,1.2c-0.2,0.2-0.3,0.4-0.5,0.6c-0.4,0.4-0.7,0.9-1,1.4
			c-0.1,0.1-0.2,0.3-0.3,0.4c-0.9,1.3-1.8,2.5-2.5,3.9c0,0,0,0.1-0.1,0.1c-0.4,0.7-0.8,1.3-1.1,2c0,0,0,0,0,0.1
			c-2.5,4.8-4.3,10.1-5,15.5l-22.7-10.1c-2.4-1.1-4-3.5-4-6.2v-70.6c0-9,6.4-16.9,15.3-18.8l10.5-2.2c21-4.4,40.2-14.7,55.4-29.9
			c18.1-18.1,42.2-28,67.8-28H252c19.2,0,37.8,5.7,53.7,16.5l48.2,32.6c9.7,6.5,24.4,15.6,40.3,18.8l66.6,13.2
			c12.5,2.5,23.4,10.2,30,21.1l2.3,3.8c2.7,4.6,4.2,9.8,4.2,15.1V409.7z"/>
	</g>
</g>
<g>
	<g>
		<path class="st0" d="M104.9,408c-4.2-4.2-9.7-6.5-15.7-6.5s-11.5,2.3-15.7,6.5s-6.5,9.7-6.5,15.7c0,5.9,2.3,11.5,6.5,15.7
			c4.2,4.2,9.7,6.5,15.7,6.5c5.9,0,11.5-2.3,15.7-6.5C113.5,430.7,113.5,416.6,104.9,408z M94.6,429c-1.4,1.4-3.3,2.2-5.3,2.2
			c-2,0-3.9-0.8-5.3-2.2c-1.4-1.4-2.2-3.3-2.2-5.3c0-2,0.8-3.9,2.2-5.3c1.4-1.4,3.3-2.2,5.3-2.2c2,0,3.9,0.8,5.3,2.2
			C97.5,421.2,97.5,426,94.6,429z"/>
	</g>
</g>
<g>
	<g>
		<path class="st0" d="M440.2,408c-4.2-4.2-9.7-6.5-15.7-6.5c-5.9,0-11.5,2.3-15.7,6.5c-8.6,8.6-8.6,22.7,0,31.3
			c4.2,4.2,9.7,6.5,15.7,6.5c5.9,0,11.5-2.3,15.7-6.5c4.2-4.2,6.5-9.7,6.5-15.7S444.4,412.2,440.2,408z M429.9,429
			c-1.4,1.4-3.3,2.2-5.3,2.2c-2,0-3.9-0.8-5.3-2.2c-2.9-2.9-2.9-7.7,0-10.7c1.4-1.4,3.3-2.2,5.3-2.2c2,0,3.9,0.8,5.3,2.2
			c1.4,1.4,2.2,3.3,2.2,5.3C432.1,425.7,431.3,427.6,429.9,429z"/>
	</g>
</g>
</svg>
