<?xml version="1.0" encoding="utf-8"?>
<!-- Generator: Adobe Illustrator 22.0.1, SVG Export Plug-In . SVG Version: 6.00 Build 0)  -->
<svg version="1.1" id="Слой_1" xmlns="http://www.w3.org/2000/svg" xmlns:xlink="http://www.w3.org/1999/xlink" x="0px" y="0px"
	 viewBox="0 0 512 512" style="enable-background:new 0 0 512 512;" xml:space="preserve">
<style type="text/css">
	.st0{fill:#f57b2f;}
</style>
<g id="_x30_28---Crossing">
	<path id="Shape" class="st0" d="M274.1,7.5c-10-10-26.2-10-36.2,0L7.5,237.9c-10,10-10,26.2,0,36.2l230.4,230.4
		c10,10,26.2,10,36.2,0l230.4-230.4c10-10,10-26.2,0-36.2L274.1,7.5z M492.5,262.1L262.1,492.5c-1.6,1.6-3.8,2.5-6.1,2.5
		c-2.3,0-4.5-0.9-6.1-2.5L19.5,262.1c-1.6-1.6-2.5-3.8-2.5-6.1s0.9-4.5,2.5-6.1L249.9,19.5c1.6-1.6,3.8-2.5,6.1-2.5
		c2.3,0,4.5,0.9,6.1,2.5l230.4,230.4c1.6,1.6,2.5,3.8,2.5,6.1S494.1,260.5,492.5,262.1z"/>
	<path id="Shape_1_" class="st0" d="M315.7,245.8c5.1,13.2,19.3,20.4,32.9,16.6c7.2-2.2,13.2-7.4,16.4-14.2s3.5-14.7,0.7-21.7
		l-18.4-45.3c-5.6-13.8-19.2-22.7-34.1-22.3l-35.2,1c-5.3,0.2-10.4-1.9-14.1-5.7c8.4-17.3,1.5-38.2-15.5-47.1s-38.1-2.9-47.7,13.7
		s-4.3,37.9,12,48.2l-46.7,27.2c-8.1,5.1-12.8,14.1-12.4,23.7c0.4,9.5,5.8,18.2,14.3,22.6c8.5,4.4,18.7,4,26.7-1.1l33-20.9l4.5,11.2
		l-29.6,43.1c-4.2,6.1-6.4,13.3-6.3,20.7c0,58.2-0.6,55.9,1.9,62.8h-44.5c-4.7,0-8.5,3.8-8.5,8.5s3.8,8.5,8.5,8.5h204.8
		c4.7,0,8.5-3.8,8.5-8.5s-3.8-8.5-8.5-8.5h-15.6c2.5-6.4,2.5-13.4,0-19.8l-50.9-125.3h10.5L315.7,245.8z M231.5,119.9
		c10.4,0,18.7,8.5,18.7,18.8c0,10.4-8.4,18.7-18.8,18.7c-10.4,0-18.7-8.4-18.7-18.8C212.7,128.3,221.1,119.9,231.5,119.9z
		 M245.1,358.8c3.2-7.5,2.4-7.4,2.4-57.2l14.8-19.1c29.4,72.3-14.5-35.9,30.8,75.8c0.3,0.1,5.6,0.1-48,0.1V358.8z M272.1,210.3
		l54.8,135.2c1.1,2.5,1.1,5.4,0,7.9c-1.7,3.6-5.5,5.7-9.5,5.4c-4-0.3-7.3-3-8.5-6.9c-74.9-185.3-6.5-15.5-36.6-90.3
		c-1.2-2.9-3.9-4.9-7-5.3c-3.1-0.3-6.2,1.1-8,3.6l-5.9,8.5c-21.2,27-21.2,25.9-21.2,30.1v48.8c0,12.8-17.1,15.6-17.1,1.1v-53
		c0-3.8,1.1-7.6,3.3-10.8l32.2-46.8c1.6-2.4,1.9-5.4,0.9-8l-10-24.7c-1.1-2.6-3.5-4.5-6.3-5c-5-1.3-5.5,0-47.9,27.1
		c-4.5,2.9-10.5,1.7-13.4-2.8c-2.9-4.5-1.7-10.5,2.8-13.4l62.8-37.3c5.4-1,10.5-3.1,14.8-6.4c6.9,6.4,16.1,9.9,25.6,9.6l35.2-1
		c7.9-0.3,15.1,4.4,18,11.7l18.5,45.3c1.1,2.5,1.1,5.4,0,7.9c-1.8,3.6-5.6,5.7-9.5,5.3c-4-0.3-7.3-3.1-8.5-6.9l-16.1-38.3
		c-1.4-3.5-4.8-5.6-8.5-5.4c-10.6-0.2-21.2,0.3-31.7,1.5c-2.3,1.1-3.9,3.1-4.6,5.5c-0.7,2.4-0.2,5,1.2,7.1V210.3z"/>
</g>
</svg>
