<?xml version="1.0" encoding="utf-8"?>
<!-- Generator: Adobe Illustrator 22.0.1, SVG Export Plug-In . SVG Version: 6.00 Build 0)  -->
<svg version="1.1" id="Capa_1" xmlns="http://www.w3.org/2000/svg" xmlns:xlink="http://www.w3.org/1999/xlink" x="0px" y="0px"
	 viewBox="0 0 512 512" style="enable-background:new 0 0 512 512;" xml:space="preserve">
<style type="text/css">
	.st0{fill:#4CB050;}
</style>
<g>
	<g>
		<path class="st0" d="M486.5,255.8l-23.2-2.9c-7.1-17.3-17.2-33.3-29.8-47.1l17.1-72.4c0.7-3,0-6.1-1.9-8.5
			c-1.9-2.4-4.8-3.8-7.8-3.8l-2.2,0c0,0,0,0,0,0c-28.4,0-53.9,17.8-64,44c-7.1-2.8-14.4-5.2-21.9-6.9c-5.4-1.3-10.8,2.1-12,7.4
			c-1.3,5.4,2.1,10.8,7.4,12c25.5,6,48.2,18.9,66.1,36.8c0.7,1,1.5,1.8,2.4,2.5c13,13.7,23.4,30.1,30,48.5c1.3,3.5,4.4,6,8.2,6.5
			l29.2,3.7c4.6,0.6,8,4.5,8,9.1v50.4c0,4.6-3.4,8.5-8,9.1l-27,3.4c-3.9,0.5-7.1,3.2-8.3,6.9c-8,25.6-23.2,48.3-44.1,65.5
			c-2.3,1.9-3.6,4.7-3.6,7.7V483c0,5-4,9-9,9h-58c-5,0-9-4-9-9v-21.1c0-5.5-4.5-10-10-10h-84c-5.5,0-10,4.5-10,10V483c0,5-4,9-9,9
			h-58c-5,0-9-4-9-9v-39c0-3.7-2-7-5.2-8.8C94.9,410.8,67,364,67,313c0-76.6,62.3-139,139-139h12.5c5.5,0,10-4.5,10-10
			s-4.5-10-10-10H206c-74.2,0-136.7,51.1-154.1,120.1h-7.3c-13.5,0-24.5-11-24.5-24.5c0-13.5,11-24.5,24.5-24.5c5.5,0,10-4.5,10-10
			s-4.5-10-10-10C20,205.1,0,225,0,249.6s20,44.5,44.5,44.5h3.6c-0.7,6.2-1.1,12.5-1.1,18.9c0,56.3,29.7,108.2,78,136.8V483
			c0,16,13,29,29,29h58c16,0,29-13,29-29v-11.1h64V483c0,16,13,29,29,29h58c16,0,29-13,29-29v-50.7c20.3-17.9,35.6-40.4,44.7-65.7
			l20.8-2.6c14.5-1.8,25.5-14.2,25.5-28.9v-50.4C512,270.1,501,257.6,486.5,255.8z M416.6,189.9c-7.5-6.1-15.5-11.5-23.9-16.1
			c5.5-15.9,19-27.7,35.1-31.4L416.6,189.9z"/>
	</g>
</g>
<g>
	<g>
		<path class="st0" d="M398.1,253.9c-1.9-1.9-4.4-2.9-7.1-2.9s-5.2,1.1-7.1,2.9c-1.9,1.9-2.9,4.4-2.9,7.1s1.1,5.2,2.9,7.1
			c1.9,1.9,4.4,2.9,7.1,2.9s5.2-1.1,7.1-2.9c1.9-1.9,2.9-4.4,2.9-7.1S399.9,255.8,398.1,253.9z"/>
	</g>
</g>
<g>
	<g>
		<path class="st0" d="M293.2,58.3c-5.5,0-10,4.5-10,10V108c0,5.5,4.5,10,10,10s10-4.5,10-10V68.3C303.2,62.8,298.8,58.3,293.2,58.3
			z"/>
	</g>
</g>
<g>
	<g>
		<path class="st0" d="M300.3,25c-1.9-1.9-4.4-2.9-7.1-2.9c-2.6,0-5.2,1.1-7.1,2.9c-1.9,1.9-2.9,4.4-2.9,7.1c0,2.6,1.1,5.2,2.9,7.1
			c1.9,1.9,4.4,2.9,7.1,2.9c2.6,0,5.2-1.1,7.1-2.9c1.9-1.9,2.9-4.4,2.9-7.1S302.2,26.9,300.3,25z"/>
	</g>
</g>
<g>
	<g>
		<path class="st0" d="M212,0c-5.5,0-10,4.5-10,10v17c0,5.5,4.5,10,10,10s10-4.5,10-10V10C222,4.5,217.5,0,212,0z"/>
	</g>
</g>
<g>
	<g>
		<path class="st0" d="M113.9,313c0-5.5-4.5-10-10-10s-10,4.5-10,10l0,0.5c0,5.5,4.5,9.9,10,9.9c0,0,0,0,0.1,0
			c5.5,0,10-4.5,9.9-10.1L113.9,313z"/>
	</g>
</g>
<g>
	<g>
		<path class="st0" d="M158.2,391.7c-17.4-10.6-31-26.8-38.2-45.8c-2-5.2-7.8-7.7-12.9-5.8c-5.2,2-7.7,7.8-5.8,12.9
			c8.8,23,25.3,42.8,46.5,55.7c1.6,1,3.4,1.5,5.2,1.5c3.4,0,6.7-1.7,8.6-4.8C164.4,400.7,162.9,394.5,158.2,391.7z"/>
	</g>
</g>
<g>
	<g>
		<path class="st0" d="M212,48.1c-23.2,0-42,18.8-42,42s18.8,42,42,42s42-18.8,42-42S235.2,48.1,212,48.1z M212,112.1
			c-12.1,0-22-9.9-22-22s9.9-22,22-22s22,9.9,22,22S224.1,112.1,212,112.1z"/>
	</g>
</g>
<g>
	<g>
		<path class="st0" d="M338,212h-9c4-6.4,6.2-13.9,6.2-22c0-23.2-18.8-42-42-42s-42,18.8-42,42c0,8.1,2.3,15.6,6.2,22H208
			c-5.5,0-10,4.5-10,10s4.5,10,10,10h130c5.5,0,10-4.5,10-10S343.5,212,338,212z M293.2,212c-12.1,0-22-9.9-22-22s9.9-22,22-22
			s22,9.9,22,22S305.4,212,293.2,212z"/>
	</g>
</g>
</svg>
